<svg width="1320" height="488" xmlns="http://www.w3.org/2000/svg" xmlns:xlink="http://www.w3.org/1999/xlink" xml:space="preserve" overflow="hidden"><g transform="translate(-1988 -1470)"><g><g><g><path d="M296.792 143.447 296.792 78.3221 263.815 78.3221 263.815 112.12 197.865 49.4694 197.865 49.4694 24.745 214.345 43.2955 230.009 197.865 83.2669 197.865 83.2669 352.435 230.009 370.985 214.345 296.792 143.447 296.792 143.447Z" fill="#FFFFFF" transform="matrix(1.12144 0 0 1 2426 1604)"/><path d="M101.434 197.96 294.296 197.96 259.567 164.967 136.164 164.967 101.434 197.96Z" fill="#FFFFFF" transform="matrix(1.12144 0 0 1 2426 1604)"/><path d="M242.2 148.47 197.865 106.35 153.526 148.47 242.2 148.47Z" fill="#FFFFFF" transform="matrix(1.12144 0 0 1 2426 1604)"/><path d="M309.152 263.947 251.574 263.947 251.574 296.94 309.152 296.94C315.985 296.94 321.524 291.401 321.524 284.568L321.524 276.319C321.524 269.486 315.985 263.947 309.152 263.947Z" fill="#FFFFFF" transform="matrix(1.12144 0 0 1 2426 1604)"/><path d="M251.574 214.457 251.574 247.45 309.152 247.45C315.985 247.45 321.524 241.911 321.524 235.078L321.524 227.365C321.524 225.104 320.595 222.942 318.955 221.385L315.243 217.859C312.944 215.675 309.894 214.457 306.723 214.457Z" fill="#FFFFFF" transform="matrix(1.12144 0 0 1 2426 1604)"/><path d="M74.2061 325.809 74.2061 333.872C74.2061 340.705 79.7453 346.244 86.5786 346.244L144.346 346.244 144.346 313.437 86.5786 313.437C79.7453 313.437 74.2061 318.976 74.2061 325.809Z" fill="#FFFFFF" transform="matrix(1.12144 0 0 1 2426 1604)"/><path d="M251.574 313.437 251.574 346.244 309.152 346.244C315.985 346.244 321.524 340.705 321.524 333.872L321.524 325.809C321.524 318.976 315.985 313.437 309.152 313.437Z" fill="#FFFFFF" transform="matrix(1.12144 0 0 1 2426 1604)"/><path d="M144.346 296.94 144.346 263.947 86.5786 263.947C79.7453 263.947 74.2061 269.486 74.2061 276.319L74.2061 284.568C74.2061 291.401 79.7453 296.94 86.5786 296.94Z" fill="#FFFFFF" transform="matrix(1.12144 0 0 1 2426 1604)"/><path d="M144.346 247.45 144.346 214.457 89.0078 214.457C85.8367 214.457 82.7865 215.675 80.4873 217.859L76.7755 221.385C75.1357 222.942 74.2066 225.104 74.2061 227.365L74.2061 235.078C74.2061 241.911 79.7453 247.45 86.5786 247.45Z" fill="#FFFFFF" transform="matrix(1.12144 0 0 1 2426 1604)"/><path d="M360.576 13.651C358.522 13.7112 356.759 15.1328 356.266 17.1277 353.672 25.9823 340.924 31.3189 321.685 31.3189 286.72 31.3189 274.257 46.8382 274.257 61.3594L274.257 70.1108 286.63 70.1108C286.63 59.2107 300.062 52.4388 321.685 52.4388 356.654 52.4388 364.989 36.9237 364.989 22.3984L364.989 18.0556C364.989 15.6294 363.027 13.6601 360.601 13.651Z" fill="#FFFFFF" transform="matrix(1.12144 0 0 1 2426 1604)"/><path d="M160.843 214.457 160.843 346.43 235.078 346.43 235.078 214.457ZM210.333 268.071 185.588 268.071 185.588 243.326 210.333 243.326Z" fill="#FFFFFF" transform="matrix(1.12144 0 0 1 2426 1604)"/></g></g></g><path d="M494.037 278.706C490.004 272.215 481.473 270.223 474.983 274.256 473.177 275.378 471.654 276.9 470.532 278.706L425.352 351.675 433.419 364.789 482.209 286.016C482.229 285.984 482.271 285.974 482.304 285.994 482.313 286 482.32 286.007 482.326 286.016L625.973 515.753 642.196 515.753Z" fill="#FFFFFF" transform="matrix(1.9995 0 0 1 1988 1339.71)"/><path d="M261.37 137.534C256.731 137.545 252.372 139.758 249.625 143.496L20.3757 515.753 36.5291 515.753 140.519 346.889 218.501 294.626 261.377 333.823 304.322 294.667 383.652 348.306 487.25 515.753 503.424 515.753 273.136 143.496C270.393 139.742 266.02 137.525 261.37 137.534ZM303.057 277.173 261.391 315.173 219.807 277.187 157.917 318.688 260.889 151.439 260.889 151.439C261.027 151.335 261.197 151.281 261.37 151.288 261.562 151.284 261.749 151.348 261.9 151.466L365.992 319.767Z" fill="#FFFFFF" transform="matrix(1.9995 0 0 1 1988 1339.71)"/><g><g><g><path d="M320.691 306.989 320.691 274.072 369.037 278.187 336.779 228.565 356.529 233.873 333.281 198.405 347.641 200.216 313.49 150.553 295.962 176.145 261.07 122.656 283.371 125.454 230.417 47.2354 177.462 125.412 199.763 122.615 163.514 178.244 194.167 170.015 144.01 247.945 218.073 233.996 218.073 284.647C193.715 285.182 171.002 290.49 153.268 301.846 169.727 310.404 187.131 325.093 203.014 349.74L378.542 349.74C365.293 332.911 344.679 318.181 320.691 306.989ZM294.933 177.627 282.919 195.196 266.46 169.891ZM281.684 241.691 257.943 278.187 304.479 274.072 304.479 300.365C283.329 292.37 261.174 287.344 238.646 285.429L238.646 233.996Z" fill="#FFFFFF" transform="matrix(1.12405 0 0 1 2058 1506)"/><path d="M132.448 306.372 131.667 306.372 131.667 292.135 152.24 296.25 137.18 268.518 148.125 271.562 135.164 251.854 143.146 252.841 123.437 226.302 105.333 252.759 113.274 251.771 106.28 262.428 90.85 237.741 107.802 242.308 87.7641 211.819 100.108 213.341 70.812 170.591 41.5161 213.259 53.8599 211.736 33.8219 242.225 50.774 237.658 23.0417 280.368 61.7187 275.677 61.7187 316.823C44.5786 324.651 29.1869 335.845 16.4583 349.74L188.119 349.74C169.48 323.612 149.318 311.597 132.448 306.372ZM74.0625 312.009 74.0625 275.677 106.362 279.38 98.75 296.25 119.323 292.135 119.323 305.343C103.964 304.918 88.6475 307.174 74.0625 312.009Z" fill="#FFFFFF" transform="matrix(1.12405 0 0 1 2058 1506)"/></g></g></g><g><g><g><path d="M320.691 306.989 320.691 274.072 369.037 278.187 336.779 228.565 356.529 233.873 333.281 198.405 347.641 200.216 313.49 150.553 295.962 176.145 261.07 122.656 283.371 125.454 230.417 47.2354 177.462 125.412 199.763 122.615 163.514 178.244 194.167 170.015 144.01 247.945 218.073 233.996 218.073 284.647C193.715 285.182 171.002 290.49 153.268 301.846 169.727 310.404 187.131 325.093 203.014 349.74L378.542 349.74C365.293 332.911 344.679 318.181 320.691 306.989ZM294.933 177.627 282.919 195.196 266.46 169.891ZM281.684 241.691 257.943 278.187 304.479 274.072 304.479 300.365C283.329 292.37 261.174 287.344 238.646 285.429L238.646 233.996Z" fill="#FFFFFF" transform="matrix(1.12405 0 0 1 2794 1506)"/><path d="M132.448 306.372 131.667 306.372 131.667 292.135 152.24 296.25 137.18 268.518 148.125 271.562 135.164 251.854 143.146 252.841 123.437 226.302 105.333 252.759 113.274 251.771 106.28 262.428 90.85 237.741 107.802 242.308 87.7641 211.819 100.108 213.341 70.812 170.591 41.5161 213.259 53.8599 211.736 33.8219 242.225 50.774 237.658 23.0417 280.368 61.7187 275.677 61.7187 316.823C44.5786 324.651 29.1869 335.845 16.4583 349.74L188.119 349.74C169.48 323.612 149.318 311.597 132.448 306.372ZM74.0625 312.009 74.0625 275.677 106.362 279.38 98.75 296.25 119.323 292.135 119.323 305.343C103.964 304.918 88.6475 307.174 74.0625 312.009Z" fill="#FFFFFF" transform="matrix(1.12405 0 0 1 2794 1506)"/></g></g></g></g></svg>