<svg width="1320" height="487" xmlns="http://www.w3.org/2000/svg" xmlns:xlink="http://www.w3.org/1999/xlink" xml:space="preserve" overflow="hidden"><g transform="translate(-340 -1467)"><g><g><g><path d="M295.953 143.042 295.953 78.1008 263.069 78.1008 263.069 111.803 197.306 49.3296 197.306 49.3296 24.6751 213.74 43.1732 229.359 197.306 83.0317 197.306 83.0317 351.439 229.359 369.937 213.74 295.953 143.042 295.953 143.042Z" transform="matrix(1.12715 0 0 1 777 1601)"/><path d="M101.147 197.401 293.465 197.401 258.834 164.501 135.779 164.501 101.147 197.401Z" transform="matrix(1.12715 0 0 1 777 1601)"/><path d="M241.516 148.051 197.306 106.049 153.093 148.051 241.516 148.051Z" transform="matrix(1.12715 0 0 1 777 1601)"/><path d="M308.278 263.201 250.864 263.201 250.864 296.101 308.278 296.101C315.092 296.101 320.616 290.578 320.616 283.764L320.616 275.539C320.616 268.725 315.092 263.201 308.278 263.201Z" transform="matrix(1.12715 0 0 1 777 1601)"/><path d="M250.864 213.851 250.864 246.751 308.278 246.751C315.092 246.751 320.616 241.227 320.616 234.413L320.616 226.723C320.616 224.468 319.689 222.312 318.054 220.76L314.353 217.244C312.06 215.066 309.019 213.851 305.856 213.851Z" transform="matrix(1.12715 0 0 1 777 1601)"/><path d="M73.9965 324.889 73.9965 332.929C73.9965 339.743 79.52 345.266 86.3341 345.266L143.938 345.266 143.938 312.551 86.3341 312.551C79.52 312.551 73.9965 318.075 73.9965 324.889Z" transform="matrix(1.12715 0 0 1 777 1601)"/><path d="M250.864 312.551 250.864 345.266 308.278 345.266C315.092 345.266 320.616 339.743 320.616 332.929L320.616 324.889C320.616 318.075 315.092 312.551 308.278 312.551Z" transform="matrix(1.12715 0 0 1 777 1601)"/><path d="M143.938 296.101 143.938 263.201 86.3341 263.201C79.52 263.201 73.9965 268.725 73.9965 275.539L73.9965 283.764C73.9965 290.578 79.52 296.101 86.3341 296.101Z" transform="matrix(1.12715 0 0 1 777 1601)"/><path d="M143.938 246.751 143.938 213.851 88.7563 213.851C85.5942 213.851 82.5526 215.066 80.2599 217.244L76.5586 220.76C74.9235 222.312 73.9969 224.468 73.9965 226.723L73.9965 234.413C73.9965 241.227 79.52 246.751 86.3341 246.751Z" transform="matrix(1.12715 0 0 1 777 1601)"/><path d="M359.557 13.6124C357.509 13.6725 355.752 15.0901 355.26 17.0793 352.673 25.9089 339.961 31.2305 320.776 31.2305 285.91 31.2305 273.482 46.7059 273.482 61.186L273.482 69.9128 285.82 69.9128C285.82 59.0434 299.214 52.2907 320.776 52.2907 355.646 52.2907 363.958 36.8194 363.958 22.3351L363.958 18.0046C363.958 15.5853 362.001 13.6215 359.582 13.6124Z" transform="matrix(1.12715 0 0 1 777 1601)"/><path d="M160.388 213.851 160.388 345.451 234.413 345.451 234.413 213.851ZM209.738 267.314 185.063 267.314 185.063 242.638 209.738 242.638Z" transform="matrix(1.12715 0 0 1 777 1601)"/></g></g></g><path d="M493.024 278.135C489 271.657 480.486 269.669 474.009 273.693 472.207 274.813 470.687 276.333 469.568 278.135L424.48 350.954 432.53 364.041 481.22 285.43C481.24 285.398 481.283 285.388 481.315 285.408 481.324 285.413 481.331 285.421 481.337 285.43L624.69 514.696 640.879 514.696Z" transform="matrix(2.00361 0 0 1 340 1336.98)"/><path d="M260.834 137.252C256.205 137.263 251.855 139.472 249.113 143.202L20.3339 514.696 36.4542 514.696 140.231 346.178 218.053 294.022 260.841 333.139 303.698 294.063 382.865 347.591 486.251 514.696 502.392 514.696 272.576 143.202C269.839 139.455 265.475 137.243 260.834 137.252ZM302.435 276.605 260.855 314.527 219.357 276.618 157.593 318.034 260.354 151.129 260.354 151.129C260.492 151.025 260.661 150.971 260.834 150.978 261.026 150.974 261.212 151.037 261.363 151.156L365.242 319.112Z" transform="matrix(2.00361 0 0 1 340 1336.98)"/><g><g><g><path d="M320.691 306.989 320.691 274.072 369.037 278.187 336.779 228.565 356.529 233.873 333.281 198.405 347.641 200.216 313.49 150.553 295.962 176.145 261.07 122.656 283.371 125.454 230.417 47.2354 177.462 125.412 199.763 122.615 163.514 178.244 194.167 170.015 144.01 247.945 218.073 233.996 218.073 284.647C193.715 285.182 171.002 290.49 153.268 301.846 169.727 310.404 187.131 325.093 203.014 349.74L378.542 349.74C365.293 332.911 344.679 318.181 320.691 306.989ZM294.933 177.627 282.919 195.196 266.46 169.891ZM281.684 241.691 257.943 278.187 304.479 274.072 304.479 300.365C283.329 292.37 261.174 287.344 238.646 285.429L238.646 233.996Z" transform="matrix(1.12658 0 0 1 409 1503)"/><path d="M132.448 306.372 131.667 306.372 131.667 292.135 152.24 296.25 137.18 268.518 148.125 271.562 135.164 251.854 143.146 252.841 123.437 226.302 105.333 252.759 113.274 251.771 106.28 262.428 90.85 237.741 107.802 242.308 87.7641 211.819 100.108 213.341 70.812 170.591 41.5161 213.259 53.8599 211.736 33.8219 242.225 50.774 237.658 23.0417 280.368 61.7187 275.677 61.7187 316.823C44.5786 324.651 29.1869 335.845 16.4583 349.74L188.119 349.74C169.48 323.612 149.318 311.597 132.448 306.372ZM74.0625 312.009 74.0625 275.677 106.362 279.38 98.75 296.25 119.323 292.135 119.323 305.343C103.964 304.918 88.6475 307.174 74.0625 312.009Z" transform="matrix(1.12658 0 0 1 409 1503)"/></g></g></g><g><g><g><path d="M320.691 306.989 320.691 274.072 369.037 278.187 336.779 228.565 356.529 233.873 333.281 198.405 347.641 200.216 313.49 150.553 295.962 176.145 261.07 122.656 283.371 125.454 230.417 47.2354 177.462 125.412 199.763 122.615 163.514 178.244 194.167 170.015 144.01 247.945 218.073 233.996 218.073 284.647C193.715 285.182 171.002 290.49 153.268 301.846 169.727 310.404 187.131 325.093 203.014 349.74L378.542 349.74C365.293 332.911 344.679 318.181 320.691 306.989ZM294.933 177.627 282.919 195.196 266.46 169.891ZM281.684 241.691 257.943 278.187 304.479 274.072 304.479 300.365C283.329 292.37 261.174 287.344 238.646 285.429L238.646 233.996Z" transform="matrix(1.12658 0 0 1 1145 1503)"/><path d="M132.448 306.372 131.667 306.372 131.667 292.135 152.24 296.25 137.18 268.518 148.125 271.562 135.164 251.854 143.146 252.841 123.437 226.302 105.333 252.759 113.274 251.771 106.28 262.428 90.85 237.741 107.802 242.308 87.7641 211.819 100.108 213.341 70.812 170.591 41.5161 213.259 53.8599 211.736 33.8219 242.225 50.774 237.658 23.0417 280.368 61.7187 275.677 61.7187 316.823C44.5786 324.651 29.1869 335.845 16.4583 349.74L188.119 349.74C169.48 323.612 149.318 311.597 132.448 306.372ZM74.0625 312.009 74.0625 275.677 106.362 279.38 98.75 296.25 119.323 292.135 119.323 305.343C103.964 304.918 88.6475 307.174 74.0625 312.009Z" transform="matrix(1.12658 0 0 1 1145 1503)"/></g></g></g></g></svg>