<svg width="1320" height="495" xmlns="http://www.w3.org/2000/svg" xmlns:xlink="http://www.w3.org/1999/xlink" xml:space="preserve" overflow="hidden"><defs><filter id="fx0" x="-10%" y="-10%" width="120%" height="120%" filterUnits="userSpaceOnUse" primitiveUnits="userSpaceOnUse"><feComponentTransfer color-interpolation-filters="sRGB"><feFuncR type="discrete" tableValues="0.2 0.2"/><feFuncG type="discrete" tableValues="0.247059 0.247059"/><feFuncB type="discrete" tableValues="0.313726 0.313726"/><feFuncA type="linear" slope="1" intercept="0"/></feComponentTransfer><feGaussianBlur stdDeviation="0 0"/></filter><clipPath id="clip1"><rect x="1" y="0" width="713" height="146"/></clipPath></defs><g transform="translate(-1988 -1463)"><g><g><g><path d="M296.792 143.447 296.792 78.3221 263.815 78.3221 263.815 112.12 197.865 49.4694 197.865 49.4694 24.745 214.345 43.2955 230.009 197.865 83.2669 197.865 83.2669 352.435 230.009 370.985 214.345 296.792 143.447 296.792 143.447Z" fill="#FFFFFF" transform="matrix(1.12144 0 0 1 2426 1604)"/><path d="M101.434 197.96 294.296 197.96 259.567 164.967 136.164 164.967 101.434 197.96Z" fill="#FFFFFF" transform="matrix(1.12144 0 0 1 2426 1604)"/><path d="M242.2 148.47 197.865 106.35 153.526 148.47 242.2 148.47Z" fill="#FFFFFF" transform="matrix(1.12144 0 0 1 2426 1604)"/><path d="M309.152 263.947 251.574 263.947 251.574 296.94 309.152 296.94C315.985 296.94 321.524 291.401 321.524 284.568L321.524 276.319C321.524 269.486 315.985 263.947 309.152 263.947Z" fill="#FFFFFF" transform="matrix(1.12144 0 0 1 2426 1604)"/><path d="M251.574 214.457 251.574 247.45 309.152 247.45C315.985 247.45 321.524 241.911 321.524 235.078L321.524 227.365C321.524 225.104 320.595 222.942 318.955 221.385L315.243 217.859C312.944 215.675 309.894 214.457 306.723 214.457Z" fill="#FFFFFF" transform="matrix(1.12144 0 0 1 2426 1604)"/><path d="M74.2061 325.809 74.2061 333.872C74.2061 340.705 79.7453 346.244 86.5786 346.244L144.346 346.244 144.346 313.437 86.5786 313.437C79.7453 313.437 74.2061 318.976 74.2061 325.809Z" fill="#FFFFFF" transform="matrix(1.12144 0 0 1 2426 1604)"/><path d="M251.574 313.437 251.574 346.244 309.152 346.244C315.985 346.244 321.524 340.705 321.524 333.872L321.524 325.809C321.524 318.976 315.985 313.437 309.152 313.437Z" fill="#FFFFFF" transform="matrix(1.12144 0 0 1 2426 1604)"/><path d="M144.346 296.94 144.346 263.947 86.5786 263.947C79.7453 263.947 74.2061 269.486 74.2061 276.319L74.2061 284.568C74.2061 291.401 79.7453 296.94 86.5786 296.94Z" fill="#FFFFFF" transform="matrix(1.12144 0 0 1 2426 1604)"/><path d="M144.346 247.45 144.346 214.457 89.0078 214.457C85.8367 214.457 82.7865 215.675 80.4873 217.859L76.7755 221.385C75.1357 222.942 74.2066 225.104 74.2061 227.365L74.2061 235.078C74.2061 241.911 79.7453 247.45 86.5786 247.45Z" fill="#FFFFFF" transform="matrix(1.12144 0 0 1 2426 1604)"/><path d="M360.576 13.651C358.522 13.7112 356.759 15.1328 356.266 17.1277 353.672 25.9823 340.924 31.3189 321.685 31.3189 286.72 31.3189 274.257 46.8382 274.257 61.3594L274.257 70.1108 286.63 70.1108C286.63 59.2107 300.062 52.4388 321.685 52.4388 356.654 52.4388 364.989 36.9237 364.989 22.3984L364.989 18.0556C364.989 15.6294 363.027 13.6601 360.601 13.651Z" fill="#FFFFFF" transform="matrix(1.12144 0 0 1 2426 1604)"/><path d="M160.843 214.457 160.843 346.43 235.078 346.43 235.078 214.457ZM210.333 268.071 185.588 268.071 185.588 243.326 210.333 243.326Z" fill="#FFFFFF" transform="matrix(1.12144 0 0 1 2426 1604)"/></g></g></g><g><g><path d="M494.037 278.706C490.004 272.215 481.473 270.223 474.983 274.256 473.177 275.378 471.654 276.9 470.532 278.706L425.352 351.675 433.419 364.789 482.209 286.016C482.229 285.984 482.271 285.974 482.304 285.994 482.313 286 482.32 286.007 482.326 286.016L625.973 515.753 642.196 515.753Z" fill="#FFFFFF" transform="matrix(1.9995 0 0 1 1988 1339.71)"/><path d="M261.37 137.534C256.731 137.545 252.372 139.758 249.625 143.496L20.3757 515.753 36.5291 515.753 140.519 346.889 218.501 294.626 261.377 333.823 304.322 294.667 383.652 348.306 487.25 515.753 503.424 515.753 273.136 143.496C270.393 139.742 266.02 137.525 261.37 137.534ZM303.057 277.173 261.391 315.173 219.807 277.187 157.917 318.688 260.889 151.439 260.889 151.439C261.027 151.335 261.197 151.281 261.37 151.288 261.562 151.284 261.749 151.348 261.9 151.466L365.992 319.767Z" fill="#FFFFFF" transform="matrix(1.9995 0 0 1 1988 1339.71)"/></g></g><g><g><g><path d="M320.691 306.989 320.691 274.072 369.037 278.187 336.779 228.565 356.529 233.873 333.281 198.405 347.641 200.216 313.49 150.553 295.962 176.145 261.07 122.656 283.371 125.454 230.417 47.2354 177.462 125.412 199.763 122.615 163.514 178.244 194.167 170.015 144.01 247.945 218.073 233.996 218.073 284.647C193.715 285.182 171.002 290.49 153.268 301.846 169.727 310.404 187.131 325.093 203.014 349.74L378.542 349.74C365.293 332.911 344.679 318.181 320.691 306.989ZM294.933 177.627 282.919 195.196 266.46 169.891ZM281.684 241.691 257.943 278.187 304.479 274.072 304.479 300.365C283.329 292.37 261.174 287.344 238.646 285.429L238.646 233.996Z" fill="#FFFFFF" transform="matrix(1.12405 0 0 1 2058 1506)"/><path d="M132.448 306.372 131.667 306.372 131.667 292.135 152.24 296.25 137.18 268.518 148.125 271.562 135.164 251.854 143.146 252.841 123.437 226.302 105.333 252.759 113.274 251.771 106.28 262.428 90.85 237.741 107.802 242.308 87.7641 211.819 100.108 213.341 70.812 170.591 41.5161 213.259 53.8599 211.736 33.8219 242.225 50.774 237.658 23.0417 280.368 61.7187 275.677 61.7187 316.823C44.5786 324.651 29.1869 335.845 16.4583 349.74L188.119 349.74C169.48 323.612 149.318 311.597 132.448 306.372ZM74.0625 312.009 74.0625 275.677 106.362 279.38 98.75 296.25 119.323 292.135 119.323 305.343C103.964 304.918 88.6475 307.174 74.0625 312.009Z" fill="#FFFFFF" transform="matrix(1.12405 0 0 1 2058 1506)"/></g></g></g><g><g><g><path d="M320.691 306.989 320.691 274.072 369.037 278.187 336.779 228.565 356.529 233.873 333.281 198.405 347.641 200.216 313.49 150.553 295.962 176.145 261.07 122.656 283.371 125.454 230.417 47.2354 177.462 125.412 199.763 122.615 163.514 178.244 194.167 170.015 144.01 247.945 218.073 233.996 218.073 284.647C193.715 285.182 171.002 290.49 153.268 301.846 169.727 310.404 187.131 325.093 203.014 349.74L378.542 349.74C365.293 332.911 344.679 318.181 320.691 306.989ZM294.933 177.627 282.919 195.196 266.46 169.891ZM281.684 241.691 257.943 278.187 304.479 274.072 304.479 300.365C283.329 292.37 261.174 287.344 238.646 285.429L238.646 233.996Z" fill="#FFFFFF" transform="matrix(1.12405 0 0 1 2794 1506)"/><path d="M132.448 306.372 131.667 306.372 131.667 292.135 152.24 296.25 137.18 268.518 148.125 271.562 135.164 251.854 143.146 252.841 123.437 226.302 105.333 252.759 113.274 251.771 106.28 262.428 90.85 237.741 107.802 242.308 87.7641 211.819 100.108 213.341 70.812 170.591 41.5161 213.259 53.8599 211.736 33.8219 242.225 50.774 237.658 23.0417 280.368 61.7187 275.677 61.7187 316.823C44.5786 324.651 29.1869 335.845 16.4583 349.74L188.119 349.74C169.48 323.612 149.318 311.597 132.448 306.372ZM74.0625 312.009 74.0625 275.677 106.362 279.38 98.75 296.25 119.323 292.135 119.323 305.343C103.964 304.918 88.6475 307.174 74.0625 312.009Z" fill="#FFFFFF" transform="matrix(1.12405 0 0 1 2794 1506)"/></g></g></g><g clip-path="url(#clip1)" filter="url(#fx0)" transform="translate(2326 1516)"><g><path d="M434.464 74.6012C427.506 76.3652 422.753 78.3742 420.205 80.6282 417.853 82.6862 416.677 85.1852 416.677 88.1252 416.677 90.4772 417.412 92.4372 418.882 94.0052 420.352 95.5732 422.165 96.3572 424.321 96.3572 427.555 96.3572 430.054 95.0832 431.818 92.5352 433.582 89.9872 434.464 86.3122 434.464 81.5102ZM521.553 55.3442C517.241 55.3442 514.35 57.2307 512.88 61.0037 511.41 64.7767 510.675 69.3582 510.675 74.7482 510.675 80.4322 511.532 84.7687 513.247 87.7577 514.962 90.7467 517.437 92.2412 520.671 92.2412 527.727 92.2412 531.255 85.7242 531.255 72.6902 531.255 61.1262 528.021 55.3442 521.553 55.3442ZM147.101 35.7932 191.642 35.7932 191.642 51.0812C187.82 51.0812 185.909 52.1102 185.909 54.1682 185.909 55.0502 186.497 56.7652 187.673 59.3132L195.317 76.3652 198.404 69.7502C201.638 62.6942 203.353 58.8722 203.549 58.2842 204.137 56.9122 204.431 55.6382 204.431 54.4622 204.431 52.2082 202.912 51.0812 199.874 51.0812L199.286 51.0812 199.286 35.7932 235.889 35.7932 235.889 51.0812C234.321 51.1792 233.047 51.6202 232.067 52.4042 231.087 53.1882 230.107 54.6092 229.127 56.6672L196.493 125.463C193.553 131.637 190 136.145 185.835 138.987 181.67 141.829 176.501 143.25 170.327 143.25 164.251 143.25 157.93 141.927 151.364 139.281L151.364 116.643 165.476 116.643C165.574 119.093 165.966 120.882 166.652 122.009 167.338 123.136 168.514 123.699 170.18 123.699 171.944 123.699 173.536 122.695 174.957 120.686 176.378 118.677 178.167 114.928 180.323 109.44L156.068 59.3132C154.402 55.9812 153.005 53.7762 151.878 52.6982 150.751 51.6202 149.306 51.0812 147.542 51.0812L147.101 51.0812ZM606.321 34.4702 606.321 87.6842C606.321 89.6442 606.468 91.0407 606.762 91.8737 607.056 92.7067 607.717 93.2947 608.746 93.6377 609.775 93.9807 611.417 94.1522 613.671 94.1522L614.7 94.1522 614.7 109.44 569.865 109.44 569.865 94.1522 571.041 94.1522C573.491 94.1522 575.206 94.0052 576.186 93.7112 577.166 93.4172 577.827 92.7802 578.17 91.8002 578.513 90.8202 578.685 89.2032 578.685 86.9492L578.685 58.2842C578.685 55.9322 578.317 54.4377 577.582 53.8007 576.847 53.1637 575.402 52.8452 573.246 52.8452L569.865 52.8452 569.865 37.4102ZM679.518 33.7352C684.124 33.7352 688.338 34.7152 692.16 36.6752 695.982 38.6352 698.775 41.6732 700.539 45.7892 701.421 47.9452 702.058 50.1012 702.45 52.2572 702.842 54.4132 703.038 57.7942 703.038 62.4002L703.038 85.0382C703.038 87.8802 703.209 89.8892 703.552 91.0652 703.895 92.2412 704.581 93.0497 705.61 93.4907 706.639 93.9317 708.379 94.1522 710.829 94.1522L711.27 94.1522 711.27 109.44 674.079 109.44 674.079 70.0442C674.079 64.4582 673.662 60.5137 672.829 58.2107 671.996 55.9077 670.012 54.7562 666.876 54.7562 663.348 54.7562 660.922 56.2017 659.599 59.0927 658.276 61.9837 657.615 66.0262 657.615 71.2202L657.615 86.8022C657.615 89.1542 657.737 90.7957 657.982 91.7267 658.227 92.6577 658.693 93.2457 659.379 93.4907 660.065 93.7357 661.388 93.9072 663.348 94.0052L666.582 94.1522 666.582 109.44 621.306 109.44 621.306 94.1522C624.344 94.0542 626.402 93.8827 627.48 93.6377 628.558 93.3927 629.244 92.7557 629.538 91.7267 629.832 90.6977 629.979 88.6642 629.979 85.6262L629.979 63.2822C629.979 59.9502 629.856 57.5982 629.611 56.2262 629.366 54.8542 628.95 53.9967 628.362 53.6537 627.774 53.3107 626.696 53.1392 625.128 53.1392L621.306 53.1392 621.306 37.9982 656.145 35.3522C656.635 37.1162 656.953 38.6842 657.1 40.0562 657.247 41.4282 657.37 43.3392 657.468 45.7892L657.762 45.7892C659.918 41.6732 662.858 38.6352 666.582 36.6752 670.306 34.7152 674.618 33.7352 679.518 33.7352ZM430.201 33.7352C440.589 33.7352 448.453 35.8912 453.794 40.2032 459.135 44.5152 461.806 50.7872 461.806 59.0192L461.806 84.7442C461.806 87.2922 462.198 89.1297 462.982 90.2567 463.766 91.3837 465.04 91.9472 466.804 91.9472 467.784 91.9472 469.205 91.6042 471.067 90.9182L471.067 106.941C468.323 108.117 464.942 109.195 460.924 110.175 456.906 111.155 453.525 111.645 450.781 111.645 443.431 111.645 438.727 108.656 436.669 102.678 430.005 108.656 422.067 111.645 412.855 111.645 405.505 111.645 399.894 109.783 396.023 106.059 392.152 102.335 390.217 97.2392 390.217 90.7712 390.217 86.8512 391.148 83.2742 393.01 80.0402 394.872 76.8062 397.665 74.1602 401.389 72.1022 405.113 70.0442 411.091 68.0352 419.323 66.0752L434.464 62.6942 434.464 60.7832C434.464 57.0592 433.778 54.2907 432.406 52.4777 431.034 50.6647 428.829 49.7582 425.791 49.7582 422.851 49.7582 420.695 50.5912 419.323 52.2572 417.951 53.9232 417.216 56.7162 417.118 60.6362L396.244 60.6362 396.244 42.9962C405.946 36.8222 417.265 33.7352 430.201 33.7352ZM3.5109 6.68719 58.9299 6.68719C65.0059 29.0312 69.2199 45.4462 71.5719 55.9322L71.8659 55.9322C72.8459 51.3262 74.8794 43.2167 77.9664 31.6037 81.0534 19.9907 83.4299 11.6852 85.0959 6.68719L139.927 6.68719 139.927 23.2982 136.252 23.2982C133.704 23.2982 132.062 23.6657 131.327 24.4007 130.592 25.1357 130.225 26.5322 130.225 28.5902L130.225 85.4792C130.225 87.8312 130.372 89.4727 130.666 90.4037 130.96 91.3347 131.621 91.9717 132.65 92.3147 133.679 92.6577 135.468 92.8292 138.016 92.8292L139.927 92.8292 139.927 109.44 93.0339 109.44 93.0339 92.8292 95.2389 92.8292C98.3749 92.8292 100.335 92.4127 101.119 91.5797 101.903 90.7467 102.295 89.1052 102.295 86.6552L102.295 23.2982 102.001 23.2982 80.3919 99.7382 59.5179 99.7382 39.0849 23.2982 38.7909 23.2982 38.7909 86.5082C38.7909 88.6642 39.0114 90.1587 39.4524 90.9917 39.8934 91.8247 40.7019 92.3392 41.8779 92.5352 43.0539 92.7312 45.1609 92.8292 48.1989 92.8292L48.1989 109.44 3.5109 109.44 3.5109 92.8292C6.9409 92.8292 9.29289 92.7067 10.5669 92.4617 11.8409 92.2167 12.6739 91.6532 13.0659 90.7712 13.4579 89.8892 13.6539 88.2722 13.6539 85.9202L13.6539 29.9132C13.6539 27.8552 13.4334 26.3852 12.9924 25.5032 12.5514 24.6212 11.7674 24.0332 10.6404 23.7392 9.5134 23.4452 7.67589 23.2982 5.1279 23.2982L3.5109 23.2982ZM590.592 3.30619C602.058 3.30619 607.791 7.17719 607.791 14.9192 607.791 18.6432 606.247 21.5342 603.16 23.5922 600.073 25.6502 595.639 26.6792 589.857 26.6792 578.391 26.6792 572.658 22.7592 572.658 14.9192 572.658 11.0972 574.177 8.20619 577.215 6.24619 580.253 4.28619 584.712 3.30619 590.592 3.30619ZM511.704 3.30619 511.704 43.8782 511.998 43.8782C516.702 37.1162 523.513 33.7352 532.431 33.7352 541.545 33.7352 548.527 37.1162 553.378 43.8782 558.229 50.6402 560.655 59.4112 560.655 70.1912 560.655 76.8552 559.503 83.3477 557.2 89.6687 554.897 95.9897 551.222 101.233 546.175 105.398 541.128 109.563 534.636 111.645 526.698 111.645 522.778 111.645 519.127 111.033 515.746 109.808 512.365 108.583 509.058 106.598 505.824 103.854L501.414 111.645 483.921 111.645 483.921 28.8842C483.921 25.7482 483.7 23.7147 483.259 22.7837 482.818 21.8527 481.52 21.3872 479.364 21.3872L474.366 21.3872 474.366 6.3932ZM341.607 3.30619C354.641 3.30619 366.744 6.00119 377.916 11.3912L377.916 44.9072 353.808 44.9072 353.808 36.0872C353.808 31.6772 352.852 28.1247 350.941 25.4297 349.03 22.7347 345.38 21.3872 339.99 21.3872 332.052 21.3872 326.27 24.5477 322.644 30.8687 319.018 37.1897 317.205 45.2502 317.205 55.0502 317.205 66.2222 319.606 74.6992 324.408 80.4812 329.21 86.2632 336.266 89.1542 345.576 89.1542 355.67 89.1542 366.254 85.7242 377.328 78.8642L377.328 101.796C371.644 105.618 365.788 108.387 359.761 110.102 353.734 111.817 346.899 112.674 339.255 112.674 326.711 112.674 316.641 109.906 309.046 104.369 301.451 98.8317 296.086 91.9717 292.95 83.7887 289.814 75.6057 288.246 67.0552 288.246 58.1372 288.246 48.0432 290.181 38.8557 294.052 30.5747 297.923 22.2937 303.852 15.6787 311.839 10.7297 319.826 5.78069 329.749 3.30619 341.607 3.30619Z" stroke="#FFFFFF" stroke-width="5" stroke-linejoin="round" stroke-miterlimit="10" fill="#262626" fill-rule="evenodd"/></g></g><path d="M2754.88 1585.21C2747.92 1586.97 2743.17 1588.98 2740.62 1591.24 2738.27 1593.29 2737.09 1595.79 2737.09 1598.73 2737.09 1601.09 2737.83 1603.05 2739.3 1604.61 2740.77 1606.18 2742.58 1606.97 2744.74 1606.97 2747.97 1606.97 2750.47 1605.69 2752.23 1603.14 2754 1600.6 2754.88 1596.92 2754.88 1592.12ZM2841.97 1565.95C2837.66 1565.95 2834.77 1567.84 2833.3 1571.61 2831.83 1575.39 2831.09 1579.97 2831.09 1585.36 2831.09 1591.04 2831.95 1595.38 2833.66 1598.37 2835.38 1601.36 2837.85 1602.85 2841.09 1602.85 2848.14 1602.85 2851.67 1596.33 2851.67 1583.3 2851.67 1571.73 2848.44 1565.95 2841.97 1565.95ZM2467.52 1546.4 2512.06 1546.4 2512.06 1561.69C2508.24 1561.69 2506.33 1562.72 2506.33 1564.78 2506.33 1565.66 2506.91 1567.37 2508.09 1569.92L2515.73 1586.97 2518.82 1580.36C2522.05 1573.3 2523.77 1569.48 2523.97 1568.89 2524.55 1567.52 2524.85 1566.25 2524.85 1565.07 2524.85 1562.82 2523.33 1561.69 2520.29 1561.69L2519.7 1561.69 2519.7 1546.4 2556.31 1546.4 2556.31 1561.69C2554.74 1561.79 2553.46 1562.23 2552.48 1563.01 2551.5 1563.8 2550.52 1565.22 2549.54 1567.28L2516.91 1636.07C2513.97 1642.25 2510.42 1646.75 2506.25 1649.6 2502.09 1652.44 2496.92 1653.86 2490.74 1653.86 2484.67 1653.86 2478.35 1652.54 2471.78 1649.89L2471.78 1627.25 2485.89 1627.25C2485.99 1629.7 2486.38 1631.49 2487.07 1632.62 2487.75 1633.74 2488.93 1634.31 2490.6 1634.31 2492.36 1634.31 2493.95 1633.3 2495.37 1631.29 2496.8 1629.29 2498.58 1625.54 2500.74 1620.05L2476.48 1569.92C2474.82 1566.59 2473.42 1564.38 2472.3 1563.31 2471.17 1562.23 2469.72 1561.69 2467.96 1561.69L2467.52 1561.69ZM2926.74 1545.08 2926.74 1598.29C2926.74 1600.25 2926.88 1601.65 2927.18 1602.48 2927.47 1603.32 2928.13 1603.9 2929.16 1604.25 2930.19 1604.59 2931.83 1604.76 2934.09 1604.76L2935.12 1604.76 2935.12 1620.05 2890.28 1620.05 2890.28 1604.76 2891.46 1604.76C2893.91 1604.76 2895.62 1604.61 2896.6 1604.32 2897.58 1604.03 2898.24 1603.39 2898.59 1602.41 2898.93 1601.43 2899.1 1599.81 2899.1 1597.56L2899.1 1568.89C2899.1 1566.54 2898.73 1565.05 2898 1564.41 2897.26 1563.77 2895.82 1563.45 2893.66 1563.45L2890.28 1563.45 2890.28 1548.02ZM2999.93 1544.34C3004.54 1544.34 3008.75 1545.32 3012.58 1547.28 3016.4 1549.24 3019.19 1552.28 3020.96 1556.4 3021.84 1558.55 3022.47 1560.71 3022.87 1562.87 3023.26 1565.02 3023.45 1568.4 3023.45 1573.01L3023.45 1595.65C3023.45 1598.49 3023.63 1600.5 3023.97 1601.67 3024.31 1602.85 3025 1603.66 3026.03 1604.1 3027.06 1604.54 3028.8 1604.76 3031.25 1604.76L3031.69 1604.76 3031.69 1620.05 2994.5 1620.05 2994.5 1580.65C2994.5 1575.07 2994.08 1571.12 2993.25 1568.82 2992.41 1566.52 2990.43 1565.36 2987.29 1565.36 2983.76 1565.36 2981.34 1566.81 2980.02 1569.7 2978.69 1572.59 2978.03 1576.63 2978.03 1581.83L2978.03 1597.41C2978.03 1599.76 2978.15 1601.4 2978.4 1602.34 2978.64 1603.27 2979.11 1603.85 2979.8 1604.1 2980.48 1604.34 2981.8 1604.52 2983.76 1604.61L2987 1604.76 2987 1620.05 2941.72 1620.05 2941.72 1604.76C2944.76 1604.66 2946.82 1604.49 2947.9 1604.25 2948.97 1604 2949.66 1603.36 2949.95 1602.34 2950.25 1601.31 2950.4 1599.27 2950.4 1596.23L2950.4 1573.89C2950.4 1570.56 2950.27 1568.21 2950.03 1566.83 2949.78 1565.46 2949.37 1564.61 2948.78 1564.26 2948.19 1563.92 2947.11 1563.75 2945.54 1563.75L2941.72 1563.75 2941.72 1548.61 2976.56 1545.96C2977.05 1547.72 2977.37 1549.29 2977.52 1550.66 2977.66 1552.04 2977.79 1553.95 2977.88 1556.4L2978.18 1556.4C2980.33 1552.28 2983.27 1549.24 2987 1547.28 2990.72 1545.32 2995.03 1544.34 2999.93 1544.34ZM2750.62 1544.34C2761.01 1544.34 2768.87 1546.5 2774.21 1550.81 2779.55 1555.12 2782.22 1561.4 2782.22 1569.63L2782.22 1595.35C2782.22 1597.9 2782.61 1599.74 2783.4 1600.87 2784.18 1601.99 2785.46 1602.56 2787.22 1602.56 2788.2 1602.56 2789.62 1602.21 2791.48 1601.53L2791.48 1617.55C2788.74 1618.73 2785.36 1619.8 2781.34 1620.78 2777.32 1621.76 2773.94 1622.25 2771.2 1622.25 2763.85 1622.25 2759.14 1619.26 2757.09 1613.29 2750.42 1619.26 2742.48 1622.25 2733.27 1622.25 2725.92 1622.25 2720.31 1620.39 2716.44 1616.67 2712.57 1612.94 2710.63 1607.85 2710.63 1601.38 2710.63 1597.46 2711.56 1593.88 2713.43 1590.65 2715.29 1587.41 2718.08 1584.77 2721.81 1582.71 2725.53 1580.65 2731.51 1578.64 2739.74 1576.68L2754.88 1573.3 2754.88 1571.39C2754.88 1567.67 2754.19 1564.9 2752.82 1563.09 2751.45 1561.27 2749.25 1560.37 2746.21 1560.37 2743.27 1560.37 2741.11 1561.2 2739.74 1562.87 2738.37 1564.53 2737.63 1567.32 2737.53 1571.24L2716.66 1571.24 2716.66 1553.6C2726.36 1547.43 2737.68 1544.34 2750.62 1544.34ZM2323.93 1517.3 2379.35 1517.3C2385.42 1539.64 2389.64 1556.05 2391.99 1566.54L2392.28 1566.54C2393.26 1561.93 2395.3 1553.83 2398.38 1542.21 2401.47 1530.6 2403.85 1522.29 2405.51 1517.3L2460.34 1517.3 2460.34 1533.91 2456.67 1533.91C2454.12 1533.91 2452.48 1534.27 2451.74 1535.01 2451.01 1535.74 2450.64 1537.14 2450.64 1539.2L2450.64 1596.09C2450.64 1598.44 2450.79 1600.08 2451.08 1601.01 2451.38 1601.94 2452.04 1602.58 2453.07 1602.92 2454.1 1603.27 2455.88 1603.44 2458.43 1603.44L2460.34 1603.44 2460.34 1620.05 2413.45 1620.05 2413.45 1603.44 2415.66 1603.44C2418.79 1603.44 2420.75 1603.02 2421.54 1602.19 2422.32 1601.36 2422.71 1599.71 2422.71 1597.26L2422.71 1533.91 2422.42 1533.91 2400.81 1610.35 2379.93 1610.35 2359.5 1533.91 2359.21 1533.91 2359.21 1597.12C2359.21 1599.27 2359.43 1600.77 2359.87 1601.6 2360.31 1602.43 2361.12 1602.95 2362.29 1603.14 2363.47 1603.34 2365.58 1603.44 2368.62 1603.44L2368.62 1620.05 2323.93 1620.05 2323.93 1603.44C2327.36 1603.44 2329.71 1603.32 2330.98 1603.07 2332.26 1602.83 2333.09 1602.26 2333.48 1601.38 2333.87 1600.5 2334.07 1598.88 2334.07 1596.53L2334.07 1540.52C2334.07 1538.46 2333.85 1536.99 2333.41 1536.11 2332.97 1535.23 2332.18 1534.64 2331.06 1534.35 2329.93 1534.05 2328.09 1533.91 2325.54 1533.91L2323.93 1533.91ZM2911.01 1513.91C2922.47 1513.91 2928.21 1517.79 2928.21 1525.53 2928.21 1529.25 2926.66 1532.14 2923.58 1534.2 2920.49 1536.26 2916.06 1537.29 2910.27 1537.29 2898.81 1537.29 2893.07 1533.37 2893.07 1525.53 2893.07 1521.71 2894.59 1518.81 2897.63 1516.85 2900.67 1514.89 2905.13 1513.91 2911.01 1513.91ZM2832.12 1513.91 2832.12 1554.49 2832.41 1554.49C2837.12 1547.72 2843.93 1544.34 2852.85 1544.34 2861.96 1544.34 2868.94 1547.72 2873.79 1554.49 2878.65 1561.25 2881.07 1570.02 2881.07 1580.8 2881.07 1587.46 2879.92 1593.96 2877.62 1600.28 2875.31 1606.6 2871.64 1611.84 2866.59 1616.01 2861.55 1620.17 2855.05 1622.25 2847.11 1622.25 2843.19 1622.25 2839.54 1621.64 2836.16 1620.42 2832.78 1619.19 2829.47 1617.21 2826.24 1614.46L2821.83 1622.25 2804.34 1622.25 2804.34 1539.49C2804.34 1536.36 2804.12 1534.32 2803.68 1533.39 2803.24 1532.46 2801.94 1532 2799.78 1532L2794.78 1532 2794.78 1517ZM2662.02 1513.91C2675.06 1513.91 2687.16 1516.61 2698.33 1522L2698.33 1555.52 2674.22 1555.52 2674.22 1546.7C2674.22 1542.29 2673.27 1538.73 2671.36 1536.04 2669.45 1533.34 2665.8 1532 2660.41 1532 2652.47 1532 2646.69 1535.16 2643.06 1541.48 2639.43 1547.8 2637.62 1555.86 2637.62 1565.66 2637.62 1576.83 2640.02 1585.31 2644.82 1591.09 2649.63 1596.87 2656.68 1599.76 2665.99 1599.76 2676.09 1599.76 2686.67 1596.33 2697.74 1589.47L2697.74 1612.4C2692.06 1616.23 2686.21 1619 2680.18 1620.71 2674.15 1622.43 2667.32 1623.28 2659.67 1623.28 2647.13 1623.28 2637.06 1620.51 2629.46 1614.98 2621.87 1609.44 2616.5 1602.58 2613.37 1594.4 2610.23 1586.21 2608.66 1577.66 2608.66 1568.75 2608.66 1558.65 2610.6 1549.46 2614.47 1541.18 2618.34 1532.9 2624.27 1526.29 2632.26 1521.34 2640.24 1516.39 2650.17 1513.91 2662.02 1513.91Z" stroke="#FFFFFF" stroke-width="5" stroke-linejoin="round" stroke-miterlimit="10" fill="#262626" fill-rule="evenodd"/><text fill="#000000" fill-opacity="0" font-family="Arial,Arial_MSFontService,sans-serif" font-size="139.944" x="2323.93" y="1636.37">My Cabin</text></g></svg>