<svg width="1320" height="488" xmlns="http://www.w3.org/2000/svg" xmlns:xlink="http://www.w3.org/1999/xlink" xml:space="preserve" overflow="hidden"><g transform="translate(-313 -1398)"><g><g><g><path d="M296.792 143.447 296.792 78.3221 263.815 78.3221 263.815 112.12 197.865 49.4694 197.865 49.4694 24.745 214.345 43.2955 230.009 197.865 83.2669 197.865 83.2669 352.435 230.009 370.985 214.345 296.792 143.447 296.792 143.447Z" fill="#98D733" transform="matrix(1.12396 0 0 1 751 1532)"/><path d="M101.434 197.96 294.296 197.96 259.567 164.967 136.164 164.967 101.434 197.96Z" fill="#98D733" transform="matrix(1.12396 0 0 1 751 1532)"/><path d="M242.2 148.47 197.865 106.35 153.526 148.47 242.2 148.47Z" fill="#98D733" transform="matrix(1.12396 0 0 1 751 1532)"/><path d="M309.152 263.947 251.574 263.947 251.574 296.94 309.152 296.94C315.985 296.94 321.524 291.401 321.524 284.568L321.524 276.319C321.524 269.486 315.985 263.947 309.152 263.947Z" fill="#98D733" transform="matrix(1.12396 0 0 1 751 1532)"/><path d="M251.574 214.457 251.574 247.45 309.152 247.45C315.985 247.45 321.524 241.911 321.524 235.078L321.524 227.365C321.524 225.104 320.595 222.942 318.955 221.385L315.243 217.859C312.944 215.675 309.894 214.457 306.723 214.457Z" fill="#98D733" transform="matrix(1.12396 0 0 1 751 1532)"/><path d="M74.2061 325.809 74.2061 333.872C74.2061 340.705 79.7453 346.244 86.5786 346.244L144.346 346.244 144.346 313.437 86.5786 313.437C79.7453 313.437 74.2061 318.976 74.2061 325.809Z" fill="#98D733" transform="matrix(1.12396 0 0 1 751 1532)"/><path d="M251.574 313.437 251.574 346.244 309.152 346.244C315.985 346.244 321.524 340.705 321.524 333.872L321.524 325.809C321.524 318.976 315.985 313.437 309.152 313.437Z" fill="#98D733" transform="matrix(1.12396 0 0 1 751 1532)"/><path d="M144.346 296.94 144.346 263.947 86.5786 263.947C79.7453 263.947 74.2061 269.486 74.2061 276.319L74.2061 284.568C74.2061 291.401 79.7453 296.94 86.5786 296.94Z" fill="#98D733" transform="matrix(1.12396 0 0 1 751 1532)"/><path d="M144.346 247.45 144.346 214.457 89.0078 214.457C85.8367 214.457 82.7865 215.675 80.4873 217.859L76.7755 221.385C75.1357 222.942 74.2066 225.104 74.2061 227.365L74.2061 235.078C74.2061 241.911 79.7453 247.45 86.5786 247.45Z" fill="#98D733" transform="matrix(1.12396 0 0 1 751 1532)"/><path d="M360.576 13.651C358.522 13.7112 356.759 15.1328 356.266 17.1277 353.672 25.9823 340.924 31.3189 321.685 31.3189 286.72 31.3189 274.257 46.8382 274.257 61.3594L274.257 70.1108 286.63 70.1108C286.63 59.2107 300.062 52.4388 321.685 52.4388 356.654 52.4388 364.989 36.9237 364.989 22.3984L364.989 18.0556C364.989 15.6294 363.027 13.6601 360.601 13.651Z" fill="#98D733" transform="matrix(1.12396 0 0 1 751 1532)"/><path d="M160.843 214.457 160.843 346.43 235.078 346.43 235.078 214.457ZM210.333 268.071 185.588 268.071 185.588 243.326 210.333 243.326Z" fill="#98D733" transform="matrix(1.12396 0 0 1 751 1532)"/></g></g></g><path d="M494.037 278.706C490.004 272.215 481.473 270.223 474.983 274.256 473.177 275.378 471.654 276.9 470.532 278.706L425.352 351.675 433.419 364.789 482.209 286.016C482.229 285.984 482.271 285.974 482.304 285.994 482.313 286 482.32 286.007 482.326 286.016L625.973 515.753 642.196 515.753Z" fill="#98D733" transform="matrix(1.9995 0 0 1 313 1267.71)"/><path d="M261.37 137.534C256.731 137.545 252.372 139.758 249.625 143.496L20.3757 515.753 36.5291 515.753 140.519 346.889 218.501 294.626 261.377 333.823 304.322 294.667 383.652 348.306 487.25 515.753 503.424 515.753 273.136 143.496C270.393 139.742 266.02 137.525 261.37 137.534ZM303.057 277.173 261.391 315.173 219.807 277.187 157.917 318.688 260.889 151.439 260.889 151.439C261.027 151.335 261.197 151.281 261.37 151.288 261.562 151.284 261.749 151.348 261.9 151.466L365.992 319.767Z" fill="#98D733" transform="matrix(1.9995 0 0 1 313 1267.71)"/><g><g><g><path d="M321.503 307.766 321.503 274.766 369.971 278.891 337.631 229.144 357.431 234.465 334.125 198.908 348.521 200.723 314.284 150.934 296.711 176.591 261.731 122.966 284.089 125.771 231 47.355 177.911 125.73 200.269 122.925 163.928 178.695 194.659 170.445 144.375 248.572 218.625 234.589 218.625 285.367C194.205 285.904 171.435 291.225 153.656 302.61 170.156 311.19 187.605 325.916 203.527 350.625L379.5 350.625C366.217 333.754 345.551 318.986 321.503 307.766ZM295.68 178.076 283.635 195.69 267.135 170.321ZM282.397 242.303 258.596 278.891 305.25 274.766 305.25 301.125C284.047 293.111 261.836 288.071 239.25 286.151L239.25 234.589Z" fill="#98D733" transform="matrix(1.12374 0 0 1 383 1434)"/><path d="M132.784 307.147 132 307.147 132 292.875 152.625 297 137.527 269.198 148.5 272.25 135.506 252.491 143.509 253.481 123.75 226.875 105.6 253.399 113.561 252.409 106.549 263.092 91.08 238.342 108.075 242.921 87.9863 212.355 100.361 213.881 70.9912 171.022 41.6213 213.799 53.9963 212.272 33.9075 242.839 50.9025 238.26 23.1 281.077 61.875 276.375 61.875 317.625C44.6915 325.473 29.2608 336.695 16.5 350.625L188.595 350.625C169.909 324.431 149.696 312.386 132.784 307.147ZM74.25 312.799 74.25 276.375 106.631 280.087 99 297 119.625 292.875 119.625 306.116C104.227 305.69 88.8719 307.951 74.25 312.799Z" fill="#98D733" transform="matrix(1.12374 0 0 1 383 1434)"/></g></g></g><g><g><g><path d="M321.503 307.766 321.503 274.766 369.971 278.891 337.631 229.144 357.431 234.465 334.125 198.908 348.521 200.723 314.284 150.934 296.711 176.591 261.731 122.966 284.089 125.771 231 47.355 177.911 125.73 200.269 122.925 163.928 178.695 194.659 170.445 144.375 248.572 218.625 234.589 218.625 285.367C194.205 285.904 171.435 291.225 153.656 302.61 170.156 311.19 187.605 325.916 203.527 350.625L379.5 350.625C366.217 333.754 345.551 318.986 321.503 307.766ZM295.68 178.076 283.635 195.69 267.135 170.321ZM282.397 242.303 258.596 278.891 305.25 274.766 305.25 301.125C284.047 293.111 261.836 288.071 239.25 286.151L239.25 234.589Z" fill="#98D733" transform="matrix(1.12374 0 0 1 1119 1434)"/><path d="M132.784 307.147 132 307.147 132 292.875 152.625 297 137.527 269.198 148.5 272.25 135.506 252.491 143.509 253.481 123.75 226.875 105.6 253.399 113.561 252.409 106.549 263.092 91.08 238.342 108.075 242.921 87.9863 212.355 100.361 213.881 70.9912 171.022 41.6213 213.799 53.9963 212.272 33.9075 242.839 50.9025 238.26 23.1 281.077 61.875 276.375 61.875 317.625C44.6915 325.473 29.2608 336.695 16.5 350.625L188.595 350.625C169.909 324.431 149.696 312.386 132.784 307.147ZM74.25 312.799 74.25 276.375 106.631 280.087 99 297 119.625 292.875 119.625 306.116C104.227 305.69 88.8719 307.951 74.25 312.799Z" fill="#98D733" transform="matrix(1.12374 0 0 1 1119 1434)"/></g></g></g></g></svg>