<svg width="130" height="103" xmlns="http://www.w3.org/2000/svg" xmlns:xlink="http://www.w3.org/1999/xlink" xml:space="preserve" overflow="hidden"><g transform="translate(-693 -431)"><path d="M86.3546 41.7373 86.3546 22.7886 76.7596 22.7886 76.7596 32.6224 57.5709 14.3936 57.5709 14.3936 7.19982 62.366 12.5973 66.9235 57.5709 24.2274 57.5709 24.2274 102.545 66.9235 107.942 62.366 86.3546 41.7373 86.3546 41.7373Z" fill="#FFFFFF" transform="matrix(1.1285 0 0 1 693 431)"/><path d="M29.5132 57.5985 85.6286 57.5985 75.5237 47.9988 39.6182 47.9988 29.5132 57.5985Z" fill="#FFFFFF" transform="matrix(1.1285 0 0 1 693 431)"/><path d="M70.4706 43.1989 57.5709 30.9436 44.6701 43.1989 70.4706 43.1989Z" fill="#FFFFFF" transform="matrix(1.1285 0 0 1 693 431)"/><path d="M89.9509 76.798 73.1981 76.798 73.1981 86.3978 89.9509 86.3978C91.9391 86.3978 93.5508 84.7861 93.5508 82.7979L93.5508 80.3979C93.5508 78.4097 91.9391 76.798 89.9509 76.798Z" fill="#FFFFFF" transform="matrix(1.1285 0 0 1 693 431)"/><path d="M73.1981 62.3984 73.1981 71.9982 89.9509 71.9982C91.9391 71.9982 93.5508 70.3865 93.5508 68.3983L93.5508 66.1543C93.5507 65.4964 93.2803 64.8673 92.8032 64.4144L91.7233 63.3884C91.0543 62.7529 90.1669 62.3985 89.2441 62.3984Z" fill="#FFFFFF" transform="matrix(1.1285 0 0 1 693 431)"/><path d="M21.591 94.7976 21.591 97.1435C21.591 99.1318 23.2027 100.743 25.191 100.743L41.9989 100.743 41.9989 91.1977 25.191 91.1977C23.2027 91.1977 21.591 92.8094 21.591 94.7976Z" fill="#FFFFFF" transform="matrix(1.1285 0 0 1 693 431)"/><path d="M73.1981 91.1977 73.1981 100.743 89.9509 100.743C91.9391 100.743 93.5508 99.1318 93.5508 97.1435L93.5508 94.7976C93.5508 92.8094 91.9391 91.1977 89.9509 91.1977Z" fill="#FFFFFF" transform="matrix(1.1285 0 0 1 693 431)"/><path d="M41.9989 86.3978 41.9989 76.798 25.191 76.798C23.2027 76.798 21.591 78.4097 21.591 80.3979L21.591 82.7979C21.591 84.7861 23.2027 86.3978 25.191 86.3978Z" fill="#FFFFFF" transform="matrix(1.1285 0 0 1 693 431)"/><path d="M41.9989 71.9982 41.9989 62.3984 25.8977 62.3984C24.9751 62.3985 24.0876 62.7529 23.4186 63.3884L22.3386 64.4144C21.8615 64.8673 21.5912 65.4964 21.591 66.1543L21.591 68.3983C21.591 70.3865 23.2027 71.9982 25.191 71.9982Z" fill="#FFFFFF" transform="matrix(1.1285 0 0 1 693 431)"/><path d="M104.913 3.9719C104.316 3.98942 103.803 4.40305 103.659 4.98347 102.905 7.55981 99.1955 9.11257 93.5976 9.11257 83.4243 9.11257 79.798 13.6281 79.798 17.8531L79.798 20.3995 83.3979 20.3995C83.3979 17.228 87.3062 15.2576 93.5976 15.2576 103.772 15.2576 106.197 10.7433 106.197 6.51703L106.197 5.25347C106.197 4.54755 105.626 3.97454 104.921 3.9719Z" fill="#FFFFFF" transform="matrix(1.1285 0 0 1 693 431)"/><path d="M46.7988 62.3984 46.7988 100.797 68.3983 100.797 68.3983 62.3984ZM61.1984 77.998 53.9986 77.998 53.9986 70.7982 61.1984 70.7982Z" fill="#FFFFFF" transform="matrix(1.1285 0 0 1 693 431)"/></g></svg>