<svg width="1320" height="508" xmlns="http://www.w3.org/2000/svg" xmlns:xlink="http://www.w3.org/1999/xlink" xml:space="preserve" overflow="hidden"><defs><filter id="fx0" x="-10%" y="-10%" width="120%" height="120%" filterUnits="userSpaceOnUse" primitiveUnits="userSpaceOnUse"><feComponentTransfer color-interpolation-filters="sRGB"><feFuncR type="discrete" tableValues="0.2 0.2"/><feFuncG type="discrete" tableValues="0.247059 0.247059"/><feFuncB type="discrete" tableValues="0.313726 0.313726"/><feFuncA type="linear" slope="1" intercept="0"/></feComponentTransfer><feGaussianBlur stdDeviation="0 0"/></filter></defs><g transform="translate(-340 -1446)"><g><g><g><path d="M295.953 143.042 295.953 78.1008 263.069 78.1008 263.069 111.803 197.306 49.3296 197.306 49.3296 24.6751 213.74 43.1732 229.359 197.306 83.0317 197.306 83.0317 351.439 229.359 369.937 213.74 295.953 143.042 295.953 143.042Z" transform="matrix(1.12715 0 0 1 777 1601)"/><path d="M101.147 197.401 293.465 197.401 258.834 164.501 135.779 164.501 101.147 197.401Z" transform="matrix(1.12715 0 0 1 777 1601)"/><path d="M241.516 148.051 197.306 106.049 153.093 148.051 241.516 148.051Z" transform="matrix(1.12715 0 0 1 777 1601)"/><path d="M308.278 263.201 250.864 263.201 250.864 296.101 308.278 296.101C315.092 296.101 320.616 290.578 320.616 283.764L320.616 275.539C320.616 268.725 315.092 263.201 308.278 263.201Z" transform="matrix(1.12715 0 0 1 777 1601)"/><path d="M250.864 213.851 250.864 246.751 308.278 246.751C315.092 246.751 320.616 241.227 320.616 234.413L320.616 226.723C320.616 224.468 319.689 222.312 318.054 220.76L314.353 217.244C312.06 215.066 309.019 213.851 305.856 213.851Z" transform="matrix(1.12715 0 0 1 777 1601)"/><path d="M73.9965 324.889 73.9965 332.929C73.9965 339.743 79.52 345.266 86.3341 345.266L143.938 345.266 143.938 312.551 86.3341 312.551C79.52 312.551 73.9965 318.075 73.9965 324.889Z" transform="matrix(1.12715 0 0 1 777 1601)"/><path d="M250.864 312.551 250.864 345.266 308.278 345.266C315.092 345.266 320.616 339.743 320.616 332.929L320.616 324.889C320.616 318.075 315.092 312.551 308.278 312.551Z" transform="matrix(1.12715 0 0 1 777 1601)"/><path d="M143.938 296.101 143.938 263.201 86.3341 263.201C79.52 263.201 73.9965 268.725 73.9965 275.539L73.9965 283.764C73.9965 290.578 79.52 296.101 86.3341 296.101Z" transform="matrix(1.12715 0 0 1 777 1601)"/><path d="M143.938 246.751 143.938 213.851 88.7563 213.851C85.5942 213.851 82.5526 215.066 80.2599 217.244L76.5586 220.76C74.9235 222.312 73.9969 224.468 73.9965 226.723L73.9965 234.413C73.9965 241.227 79.52 246.751 86.3341 246.751Z" transform="matrix(1.12715 0 0 1 777 1601)"/><path d="M359.557 13.6124C357.509 13.6725 355.752 15.0901 355.26 17.0793 352.673 25.9089 339.961 31.2305 320.776 31.2305 285.91 31.2305 273.482 46.7059 273.482 61.186L273.482 69.9128 285.82 69.9128C285.82 59.0434 299.214 52.2907 320.776 52.2907 355.646 52.2907 363.958 36.8194 363.958 22.3351L363.958 18.0046C363.958 15.5853 362.001 13.6215 359.582 13.6124Z" transform="matrix(1.12715 0 0 1 777 1601)"/><path d="M160.388 213.851 160.388 345.451 234.413 345.451 234.413 213.851ZM209.738 267.314 185.063 267.314 185.063 242.638 209.738 242.638Z" transform="matrix(1.12715 0 0 1 777 1601)"/></g></g></g><g><g><path d="M493.024 278.135C489 271.657 480.486 269.669 474.009 273.693 472.207 274.813 470.687 276.333 469.568 278.135L424.48 350.954 432.53 364.041 481.22 285.43C481.24 285.398 481.283 285.388 481.315 285.408 481.324 285.413 481.331 285.421 481.337 285.43L624.69 514.696 640.879 514.696Z" transform="matrix(2.00361 0 0 1 340 1336.98)"/><path d="M260.834 137.252C256.205 137.263 251.855 139.472 249.113 143.202L20.3339 514.696 36.4542 514.696 140.231 346.178 218.053 294.022 260.841 333.139 303.698 294.063 382.865 347.591 486.251 514.696 502.392 514.696 272.576 143.202C269.839 139.455 265.475 137.243 260.834 137.252ZM302.435 276.605 260.855 314.527 219.357 276.618 157.593 318.034 260.354 151.129 260.354 151.129C260.492 151.025 260.661 150.971 260.834 150.978 261.026 150.974 261.212 151.037 261.363 151.156L365.242 319.112Z" transform="matrix(2.00361 0 0 1 340 1336.98)"/></g></g><g><g><g><path d="M320.691 306.989 320.691 274.072 369.037 278.187 336.779 228.565 356.529 233.873 333.281 198.405 347.641 200.216 313.49 150.553 295.962 176.145 261.07 122.656 283.371 125.454 230.417 47.2354 177.462 125.412 199.763 122.615 163.514 178.244 194.167 170.015 144.01 247.945 218.073 233.996 218.073 284.647C193.715 285.182 171.002 290.49 153.268 301.846 169.727 310.404 187.131 325.093 203.014 349.74L378.542 349.74C365.293 332.911 344.679 318.181 320.691 306.989ZM294.933 177.627 282.919 195.196 266.46 169.891ZM281.684 241.691 257.943 278.187 304.479 274.072 304.479 300.365C283.329 292.37 261.174 287.344 238.646 285.429L238.646 233.996Z" transform="matrix(1.12658 0 0 1 409 1503)"/><path d="M132.448 306.372 131.667 306.372 131.667 292.135 152.24 296.25 137.18 268.518 148.125 271.562 135.164 251.854 143.146 252.841 123.437 226.302 105.333 252.759 113.274 251.771 106.28 262.428 90.85 237.741 107.802 242.308 87.7641 211.819 100.108 213.341 70.812 170.591 41.5161 213.259 53.8599 211.736 33.8219 242.225 50.774 237.658 23.0417 280.368 61.7187 275.677 61.7187 316.823C44.5786 324.651 29.1869 335.845 16.4583 349.74L188.119 349.74C169.48 323.612 149.318 311.597 132.448 306.372ZM74.0625 312.009 74.0625 275.677 106.362 279.38 98.75 296.25 119.323 292.135 119.323 305.343C103.964 304.918 88.6475 307.174 74.0625 312.009Z" transform="matrix(1.12658 0 0 1 409 1503)"/></g></g></g><g><g><g><path d="M320.691 306.989 320.691 274.072 369.037 278.187 336.779 228.565 356.529 233.873 333.281 198.405 347.641 200.216 313.49 150.553 295.962 176.145 261.07 122.656 283.371 125.454 230.417 47.2354 177.462 125.412 199.763 122.615 163.514 178.244 194.167 170.015 144.01 247.945 218.073 233.996 218.073 284.647C193.715 285.182 171.002 290.49 153.268 301.846 169.727 310.404 187.131 325.093 203.014 349.74L378.542 349.74C365.293 332.911 344.679 318.181 320.691 306.989ZM294.933 177.627 282.919 195.196 266.46 169.891ZM281.684 241.691 257.943 278.187 304.479 274.072 304.479 300.365C283.329 292.37 261.174 287.344 238.646 285.429L238.646 233.996Z" transform="matrix(1.12658 0 0 1 1145 1503)"/><path d="M132.448 306.372 131.667 306.372 131.667 292.135 152.24 296.25 137.18 268.518 148.125 271.562 135.164 251.854 143.146 252.841 123.437 226.302 105.333 252.759 113.274 251.771 106.28 262.428 90.85 237.741 107.802 242.308 87.7641 211.819 100.108 213.341 70.812 170.591 41.5161 213.259 53.8599 211.736 33.8219 242.225 50.774 237.658 23.0417 280.368 61.7187 275.677 61.7187 316.823C44.5786 324.651 29.1869 335.845 16.4583 349.74L188.119 349.74C169.48 323.612 149.318 311.597 132.448 306.372ZM74.0625 312.009 74.0625 275.677 106.362 279.38 98.75 296.25 119.323 292.135 119.323 305.343C103.964 304.918 88.6475 307.174 74.0625 312.009Z" transform="matrix(1.12658 0 0 1 1145 1503)"/></g></g></g><g filter="url(#fx0)" transform="translate(677 1500)"><g><path d="M434.138 74.4004C427.18 76.1644 422.427 78.1734 419.879 80.4274 417.527 82.4854 416.351 84.9844 416.351 87.9244 416.351 90.2764 417.086 92.2364 418.556 93.8044 420.026 95.3724 421.839 96.1564 423.995 96.1564 427.229 96.1564 429.728 94.8824 431.492 92.3344 433.256 89.7864 434.138 86.1114 434.138 81.3094ZM521.227 55.1434C516.915 55.1434 514.024 57.0299 512.554 60.8029 511.084 64.5759 510.349 69.1574 510.349 74.5474 510.349 80.2314 511.207 84.5679 512.922 87.5569 514.637 90.5459 517.111 92.0404 520.345 92.0404 527.401 92.0404 530.929 85.5234 530.929 72.4894 530.929 60.9254 527.695 55.1434 521.227 55.1434ZM146.775 35.5924 191.316 35.5924 191.316 50.8804C187.494 50.8804 185.583 51.9094 185.583 53.9674 185.583 54.8494 186.171 56.5644 187.347 59.1124L194.991 76.1644 198.078 69.5494C201.312 62.4934 203.027 58.6714 203.223 58.0834 203.811 56.7114 204.105 55.4374 204.105 54.2614 204.105 52.0074 202.586 50.8804 199.548 50.8804L198.96 50.8804 198.96 35.5924 235.563 35.5924 235.563 50.8804C233.995 50.9784 232.721 51.4194 231.741 52.2034 230.761 52.9874 229.781 54.4084 228.801 56.4664L196.167 125.262C193.227 131.436 189.675 135.944 185.51 138.786 181.345 141.628 176.175 143.049 170.001 143.049 163.925 143.049 157.604 141.726 151.038 139.08L151.038 116.442 165.15 116.442C165.248 118.892 165.64 120.681 166.326 121.808 167.012 122.935 168.188 123.498 169.854 123.498 171.618 123.498 173.211 122.494 174.632 120.485 176.053 118.476 177.841 114.727 179.997 109.239L155.742 59.1124C154.076 55.7804 152.68 53.5754 151.553 52.4974 150.426 51.4194 148.98 50.8804 147.216 50.8804L146.775 50.8804ZM605.995 34.2694 605.995 87.4834C605.995 89.4434 606.142 90.8399 606.436 91.6729 606.73 92.5059 607.392 93.0939 608.421 93.4369 609.45 93.7799 611.091 93.9514 613.345 93.9514L614.374 93.9514 614.374 109.239 569.539 109.239 569.539 93.9514 570.715 93.9514C573.165 93.9514 574.88 93.8044 575.86 93.5104 576.84 93.2164 577.502 92.5794 577.845 91.5994 578.188 90.6194 578.359 89.0024 578.359 86.7484L578.359 58.0834C578.359 55.7314 577.992 54.2369 577.257 53.5999 576.522 52.9629 575.076 52.6444 572.92 52.6444L569.539 52.6444 569.539 37.2094ZM679.192 33.5344C683.798 33.5344 688.012 34.5144 691.834 36.4744 695.656 38.4344 698.449 41.4724 700.213 45.5884 701.095 47.7444 701.732 49.9004 702.124 52.0564 702.516 54.2124 702.712 57.5934 702.712 62.1994L702.712 84.8374C702.712 87.6794 702.884 89.6884 703.227 90.8644 703.57 92.0404 704.256 92.8489 705.285 93.2899 706.314 93.7309 708.053 93.9514 710.503 93.9514L710.944 93.9514 710.944 109.239 673.753 109.239 673.753 69.8434C673.753 64.2574 673.337 60.3129 672.504 58.0099 671.671 55.7069 669.686 54.5554 666.55 54.5554 663.022 54.5554 660.597 56.0009 659.274 58.8919 657.951 61.7829 657.289 65.8254 657.289 71.0194L657.289 86.6014C657.289 88.9534 657.412 90.5949 657.657 91.5259 657.902 92.4569 658.367 93.0449 659.053 93.2899 659.739 93.5349 661.062 93.7064 663.022 93.8044L666.256 93.9514 666.256 109.239 620.98 109.239 620.98 93.9514C624.018 93.8534 626.076 93.6819 627.154 93.4369 628.232 93.1919 628.918 92.5549 629.212 91.5259 629.506 90.4969 629.653 88.4634 629.653 85.4254L629.653 63.0814C629.653 59.7494 629.531 57.3974 629.286 56.0254 629.041 54.6534 628.624 53.7959 628.036 53.4529 627.448 53.1099 626.37 52.9384 624.802 52.9384L620.98 52.9384 620.98 37.7974 655.819 35.1514C656.309 36.9154 656.628 38.4834 656.775 39.8554 656.922 41.2274 657.044 43.1384 657.142 45.5884L657.436 45.5884C659.592 41.4724 662.532 38.4344 666.256 36.4744 669.98 34.5144 674.292 33.5344 679.192 33.5344ZM429.875 33.5344C440.263 33.5344 448.128 35.6904 453.469 40.0024 458.81 44.3144 461.48 50.5864 461.48 58.8184L461.48 84.5434C461.48 87.0914 461.872 88.9289 462.656 90.0559 463.44 91.1829 464.714 91.7464 466.478 91.7464 467.458 91.7464 468.879 91.4034 470.741 90.7174L470.741 106.74C467.997 107.916 464.616 108.994 460.598 109.974 456.58 110.954 453.199 111.444 450.455 111.444 443.105 111.444 438.401 108.455 436.343 102.477 429.679 108.455 421.741 111.444 412.529 111.444 405.179 111.444 399.569 109.582 395.698 105.858 391.827 102.134 389.891 97.0384 389.891 90.5704 389.891 86.6504 390.822 83.0734 392.684 79.8394 394.546 76.6054 397.339 73.9594 401.063 71.9014 404.787 69.8434 410.765 67.8344 418.997 65.8744L434.138 62.4934 434.138 60.5824C434.138 56.8584 433.452 54.0899 432.08 52.2769 430.708 50.4639 428.503 49.5574 425.465 49.5574 422.525 49.5574 420.369 50.3904 418.997 52.0564 417.625 53.7224 416.89 56.5154 416.792 60.4354L395.918 60.4354 395.918 42.7954C405.62 36.6214 416.939 33.5344 429.875 33.5344ZM3.18521 6.48639 58.6042 6.48639C64.6802 28.8304 68.8942 45.2454 71.2462 55.7314L71.5402 55.7314C72.5202 51.1254 74.5537 43.0159 77.6407 31.4029 80.7277 19.7899 83.1042 11.4844 84.7702 6.48639L139.601 6.48639 139.601 23.0974 135.926 23.0974C133.378 23.0974 131.737 23.4649 131.002 24.1999 130.267 24.9349 129.899 26.3314 129.899 28.3894L129.899 85.2784C129.899 87.6304 130.046 89.2719 130.34 90.2029 130.634 91.1339 131.296 91.7709 132.325 92.1139 133.354 92.4569 135.142 92.6284 137.69 92.6284L139.601 92.6284 139.601 109.239 92.7082 109.239 92.7082 92.6284 94.9132 92.6284C98.0492 92.6284 100.009 92.2119 100.793 91.3789 101.577 90.5459 101.969 88.9044 101.969 86.4544L101.969 23.0974 101.675 23.0974 80.0662 99.5374 59.1922 99.5374 38.7592 23.0974 38.4652 23.0974 38.4652 86.3074C38.4652 88.4634 38.6857 89.9579 39.1267 90.7909 39.5677 91.6239 40.3762 92.1384 41.5522 92.3344 42.7282 92.5304 44.8352 92.6284 47.8732 92.6284L47.8732 109.239 3.18521 109.239 3.18521 92.6284C6.61522 92.6284 8.96721 92.5059 10.2412 92.2609 11.5152 92.0159 12.3482 91.4524 12.7402 90.5704 13.1322 89.6884 13.3282 88.0714 13.3282 85.7194L13.3282 29.7124C13.3282 27.6544 13.1077 26.1844 12.6667 25.3024 12.2257 24.4204 11.4417 23.8324 10.3147 23.5384 9.18771 23.2444 7.35021 23.0974 4.80221 23.0974L3.18521 23.0974ZM590.266 3.10538C601.732 3.10538 607.465 6.97639 607.465 14.7184 607.465 18.4424 605.922 21.3334 602.835 23.3914 599.748 25.4494 595.313 26.4784 589.531 26.4784 578.065 26.4784 572.332 22.5584 572.332 14.7184 572.332 10.8964 573.851 8.00539 576.889 6.04539 579.927 4.08539 584.386 3.10538 590.266 3.10538ZM511.378 3.10538 511.378 43.6774 511.672 43.6774C516.376 36.9154 523.187 33.5344 532.105 33.5344 541.219 33.5344 548.202 36.9154 553.053 43.6774 557.904 50.4394 560.329 59.2104 560.329 69.9904 560.329 76.6544 559.178 83.1469 556.875 89.4679 554.572 95.7889 550.897 101.032 545.85 105.197 540.803 109.362 534.31 111.444 526.372 111.444 522.452 111.444 518.802 110.832 515.421 109.607 512.04 108.382 508.732 106.397 505.498 103.653L501.088 111.444 483.595 111.444 483.595 28.6834C483.595 25.5474 483.375 23.5139 482.934 22.5829 482.493 21.6519 481.194 21.1864 479.038 21.1864L474.04 21.1864 474.04 6.19239ZM341.281 3.10538C354.315 3.10538 366.418 5.80038 377.59 11.1904L377.59 44.7064 353.482 44.7064 353.482 35.8864C353.482 31.4764 352.527 27.9239 350.616 25.2289 348.705 22.5339 345.054 21.1864 339.664 21.1864 331.726 21.1864 325.944 24.3469 322.318 30.6679 318.692 36.9889 316.879 45.0494 316.879 54.8494 316.879 66.0214 319.28 74.4984 324.082 80.2804 328.884 86.0624 335.94 88.9534 345.25 88.9534 355.344 88.9534 365.928 85.5234 377.002 78.6634L377.002 101.595C371.318 105.417 365.463 108.186 359.436 109.901 353.409 111.616 346.573 112.473 338.929 112.473 326.385 112.473 316.316 109.705 308.721 104.168 301.126 98.6309 295.76 91.7709 292.624 83.5879 289.488 75.4049 287.92 66.8544 287.92 57.9364 287.92 47.8424 289.856 38.6549 293.727 30.3739 297.598 22.0929 303.527 15.4779 311.514 10.5289 319.501 5.57989 329.423 3.10538 341.281 3.10538Z" stroke="#262626" stroke-width="5" stroke-linejoin="round" stroke-miterlimit="10" fill="#FFFFFF" fill-rule="evenodd"/></g></g><path d="M1105.55 1569.01C1098.6 1570.77 1093.84 1572.78 1091.3 1575.04 1088.94 1577.09 1087.77 1579.59 1087.77 1582.53 1087.77 1584.88 1088.5 1586.84 1089.97 1588.41 1091.44 1589.98 1093.26 1590.76 1095.41 1590.76 1098.65 1590.76 1101.14 1589.49 1102.91 1586.94 1104.67 1584.39 1105.55 1580.72 1105.55 1575.92ZM1192.64 1549.75C1188.33 1549.75 1185.44 1551.64 1183.97 1555.41 1182.5 1559.18 1181.77 1563.77 1181.77 1569.16 1181.77 1574.84 1182.62 1579.18 1184.34 1582.17 1186.05 1585.15 1188.53 1586.65 1191.76 1586.65 1198.82 1586.65 1202.35 1580.13 1202.35 1567.1 1202.35 1555.53 1199.11 1549.75 1192.64 1549.75ZM818.192 1530.2 862.733 1530.2 862.733 1545.49C858.911 1545.49 857 1546.52 857 1548.58 857 1549.46 857.588 1551.17 858.764 1553.72L866.408 1570.77 869.495 1564.16C872.729 1557.1 874.444 1553.28 874.64 1552.69 875.228 1551.32 875.522 1550.05 875.522 1548.87 875.522 1546.62 874.003 1545.49 870.965 1545.49L870.377 1545.49 870.377 1530.2 906.98 1530.2 906.98 1545.49C905.412 1545.59 904.138 1546.03 903.158 1546.81 902.178 1547.6 901.198 1549.02 900.218 1551.07L867.584 1619.87C864.644 1626.04 861.091 1630.55 856.926 1633.39 852.761 1636.24 847.592 1637.66 841.418 1637.66 835.342 1637.66 829.021 1636.33 822.455 1633.69L822.455 1611.05 836.567 1611.05C836.665 1613.5 837.057 1615.29 837.743 1616.42 838.429 1617.54 839.605 1618.11 841.271 1618.11 843.035 1618.11 844.627 1617.1 846.048 1615.09 847.469 1613.08 849.258 1609.34 851.414 1603.85L827.159 1553.72C825.493 1550.39 824.096 1548.18 822.969 1547.11 821.842 1546.03 820.397 1545.49 818.633 1545.49L818.192 1545.49ZM1277.41 1528.88 1277.41 1582.09C1277.41 1584.05 1277.56 1585.45 1277.85 1586.28 1278.15 1587.11 1278.81 1587.7 1279.84 1588.05 1280.87 1588.39 1282.51 1588.56 1284.76 1588.56L1285.79 1588.56 1285.79 1603.85 1240.96 1603.85 1240.96 1588.56 1242.13 1588.56C1244.58 1588.56 1246.3 1588.41 1247.28 1588.12 1248.26 1587.82 1248.92 1587.19 1249.26 1586.21 1249.6 1585.23 1249.78 1583.61 1249.78 1581.36L1249.78 1552.69C1249.78 1550.34 1249.41 1548.85 1248.67 1548.21 1247.94 1547.57 1246.49 1547.25 1244.34 1547.25L1240.96 1547.25 1240.96 1531.82ZM1350.61 1528.14C1355.21 1528.14 1359.43 1529.12 1363.25 1531.08 1367.07 1533.04 1369.87 1536.08 1371.63 1540.2 1372.51 1542.35 1373.15 1544.51 1373.54 1546.66 1373.93 1548.82 1374.13 1552.2 1374.13 1556.81L1374.13 1579.45C1374.13 1582.29 1374.3 1584.3 1374.64 1585.47 1374.99 1586.65 1375.67 1587.46 1376.7 1587.9 1377.73 1588.34 1379.47 1588.56 1381.92 1588.56L1382.36 1588.56 1382.36 1603.85 1345.17 1603.85 1345.17 1564.45C1345.17 1558.87 1344.75 1554.92 1343.92 1552.62 1343.09 1550.32 1341.1 1549.16 1337.97 1549.16 1334.44 1549.16 1332.01 1550.61 1330.69 1553.5 1329.37 1556.39 1328.71 1560.43 1328.71 1565.63L1328.71 1581.21C1328.71 1583.56 1328.83 1585.2 1329.07 1586.13 1329.32 1587.07 1329.78 1587.65 1330.47 1587.9 1331.16 1588.14 1332.48 1588.31 1334.44 1588.41L1337.67 1588.56 1337.67 1603.85 1292.4 1603.85 1292.4 1588.56C1295.43 1588.46 1297.49 1588.29 1298.57 1588.05 1299.65 1587.8 1300.33 1587.16 1300.63 1586.13 1300.92 1585.11 1301.07 1583.07 1301.07 1580.03L1301.07 1557.69C1301.07 1554.36 1300.95 1552.01 1300.7 1550.63 1300.46 1549.26 1300.04 1548.4 1299.45 1548.06 1298.86 1547.72 1297.79 1547.55 1296.22 1547.55L1292.4 1547.55 1292.4 1532.41 1327.24 1529.76C1327.73 1531.52 1328.04 1533.09 1328.19 1534.46 1328.34 1535.84 1328.46 1537.75 1328.56 1540.2L1328.85 1540.2C1331.01 1536.08 1333.95 1533.04 1337.67 1531.08 1341.4 1529.12 1345.71 1528.14 1350.61 1528.14ZM1101.29 1528.14C1111.68 1528.14 1119.54 1530.3 1124.89 1534.61 1130.23 1538.92 1132.9 1545.19 1132.9 1553.43L1132.9 1579.15C1132.9 1581.7 1133.29 1583.54 1134.07 1584.66 1134.86 1585.79 1136.13 1586.35 1137.89 1586.35 1138.88 1586.35 1140.3 1586.01 1142.16 1585.33L1142.16 1601.35C1139.41 1602.52 1136.03 1603.6 1132.01 1604.58 1128 1605.56 1124.62 1606.05 1121.87 1606.05 1114.52 1606.05 1109.82 1603.06 1107.76 1597.09 1101.1 1603.06 1093.16 1606.05 1083.95 1606.05 1076.6 1606.05 1070.99 1604.19 1067.11 1600.47 1063.24 1596.74 1061.31 1591.65 1061.31 1585.18 1061.31 1581.26 1062.24 1577.68 1064.1 1574.45 1065.96 1571.21 1068.76 1568.57 1072.48 1566.51 1076.2 1564.45 1082.18 1562.44 1090.41 1560.48L1105.55 1557.1 1105.55 1555.19C1105.55 1551.47 1104.87 1548.7 1103.5 1546.89 1102.12 1545.07 1099.92 1544.17 1096.88 1544.17 1093.94 1544.17 1091.79 1545 1090.41 1546.66 1089.04 1548.33 1088.31 1551.12 1088.21 1555.04L1067.33 1555.04 1067.33 1537.4C1077.04 1531.23 1088.36 1528.14 1101.29 1528.14ZM674.602 1501.09 730.021 1501.09C736.097 1523.44 740.311 1539.85 742.663 1550.34L742.957 1550.34C743.937 1545.73 745.97 1537.62 749.057 1526.01 752.144 1514.4 754.521 1506.09 756.187 1501.09L811.018 1501.09 811.018 1517.71 807.343 1517.71C804.795 1517.71 803.153 1518.07 802.418 1518.81 801.683 1519.54 801.316 1520.94 801.316 1523L801.316 1579.89C801.316 1582.24 801.463 1583.88 801.757 1584.81 802.051 1585.74 802.712 1586.38 803.741 1586.72 804.77 1587.07 806.559 1587.24 809.107 1587.24L811.018 1587.24 811.018 1603.85 764.125 1603.85 764.125 1587.24 766.33 1587.24C769.466 1587.24 771.426 1586.82 772.21 1585.99 772.994 1585.15 773.386 1583.51 773.386 1581.06L773.386 1517.71 773.092 1517.71 751.483 1594.15 730.609 1594.15 710.176 1517.71 709.882 1517.71 709.882 1580.92C709.882 1583.07 710.102 1584.57 710.543 1585.4 710.984 1586.23 711.793 1586.75 712.969 1586.94 714.145 1587.14 716.252 1587.24 719.29 1587.24L719.29 1603.85 674.602 1603.85 674.602 1587.24C678.032 1587.24 680.384 1587.11 681.658 1586.87 682.932 1586.62 683.765 1586.06 684.157 1585.18 684.549 1584.3 684.745 1582.68 684.745 1580.33L684.745 1524.32C684.745 1522.26 684.524 1520.79 684.083 1519.91 683.642 1519.03 682.858 1518.44 681.731 1518.15 680.604 1517.85 678.767 1517.71 676.219 1517.71L674.602 1517.71ZM1261.68 1497.71C1273.15 1497.71 1278.88 1501.58 1278.88 1509.33 1278.88 1513.05 1277.34 1515.94 1274.25 1518 1271.16 1520.06 1266.73 1521.09 1260.95 1521.09 1249.48 1521.09 1243.75 1517.17 1243.75 1509.33 1243.75 1505.5 1245.27 1502.61 1248.31 1500.65 1251.34 1498.69 1255.8 1497.71 1261.68 1497.71ZM1182.79 1497.71 1182.79 1538.29 1183.09 1538.29C1187.79 1531.52 1194.6 1528.14 1203.52 1528.14 1212.64 1528.14 1219.62 1531.52 1224.47 1538.29 1229.32 1545.05 1231.75 1553.82 1231.75 1564.6 1231.75 1571.26 1230.59 1577.76 1228.29 1584.08 1225.99 1590.4 1222.31 1595.64 1217.27 1599.81 1212.22 1603.97 1205.73 1606.05 1197.79 1606.05 1193.87 1606.05 1190.22 1605.44 1186.84 1604.22 1183.46 1602.99 1180.15 1601.01 1176.91 1598.26L1172.5 1606.05 1155.01 1606.05 1155.01 1523.29C1155.01 1520.16 1154.79 1518.12 1154.35 1517.19 1153.91 1516.26 1152.61 1515.79 1150.45 1515.79L1145.46 1515.79 1145.46 1500.8ZM1012.7 1497.71C1025.73 1497.71 1037.83 1500.41 1049.01 1505.8L1049.01 1539.31 1024.9 1539.31 1024.9 1530.49C1024.9 1526.08 1023.94 1522.53 1022.03 1519.84 1020.12 1517.14 1016.47 1515.79 1011.08 1515.79 1003.14 1515.79 997.361 1518.96 993.735 1525.28 990.109 1531.6 988.296 1539.66 988.296 1549.46 988.296 1560.63 990.697 1569.11 995.499 1574.89 1000.3 1580.67 1007.36 1583.56 1016.67 1583.56 1026.76 1583.56 1037.34 1580.13 1048.42 1573.27L1048.42 1596.2C1042.73 1600.03 1036.88 1602.79 1030.85 1604.51 1024.83 1606.22 1017.99 1607.08 1010.35 1607.08 997.802 1607.08 987.732 1604.31 980.137 1598.78 972.542 1593.24 967.177 1586.38 964.041 1578.2 960.905 1570.01 959.337 1561.46 959.337 1552.54 959.337 1542.45 961.272 1533.26 965.143 1524.98 969.014 1516.7 974.943 1510.09 982.93 1505.14 990.917 1500.19 1000.84 1497.71 1012.7 1497.71Z" stroke="#262626" stroke-width="5" stroke-linejoin="round" stroke-miterlimit="10" fill="#FFFFFF" fill-rule="evenodd"/><text fill="#000000" fill-opacity="0" font-family="Arial,Arial_MSFontService,sans-serif" font-size="139.944" x="674.602" y="1620.16">My Cabin</text></g></svg>